<svg width="43" height="32" viewBox="0 0 43 32" fill="none" xmlns="http://www.w3.org/2000/svg">
<path d="M35.5239 9.63538H7.10487C5.14294 9.63538 3.55249 10.7702 3.55249 12.1701V24.8437C3.55249 26.2436 5.14294 27.3784 7.10487 27.3784H35.5239C37.4858 27.3784 39.0763 26.2436 39.0763 24.8437V12.1701C39.0763 10.7702 37.4858 9.63538 35.5239 9.63538Z" stroke="white" stroke-width="2" stroke-linecap="round" stroke-linejoin="round"/>
<path d="M28.419 27.3784V7.10064C28.419 6.42839 28.0447 5.78367 27.3785 5.30832C26.7123 4.83297 25.8088 4.56592 24.8666 4.56592H17.7619C16.8197 4.56592 15.9161 4.83297 15.2499 5.30832C14.5837 5.78367 14.2095 6.42839 14.2095 7.10064V27.3784" stroke="white" stroke-width="2" stroke-linecap="round" stroke-linejoin="round"/>
</svg>
