<svg width="43" height="31" viewBox="0 0 43 31" fill="none" xmlns="http://www.w3.org/2000/svg">
<g clip-path="url(#clip0_30_258)">
<path d="M28.4191 28.4098V23.5051C28.4858 22.9008 28.3713 22.2932 28.0835 21.7229C27.7956 21.1526 27.3409 20.6325 26.7495 20.1973C32.3268 19.7537 38.1882 18.2455 38.1882 11.3257C38.1877 9.55629 37.2338 7.85469 35.5239 6.57314C36.3336 5.02507 36.2763 3.31393 35.3641 1.79519C35.3641 1.79519 33.2681 1.35161 28.4191 3.67088C24.3481 2.88362 20.0568 2.88362 15.9858 3.67088C11.1368 1.35161 9.04092 1.79519 9.04092 1.79519C8.12862 3.31393 8.07137 5.02507 8.88106 6.57314C7.15838 7.8642 6.20349 9.58117 6.21678 11.3638C6.21678 18.2329 12.0782 19.741 17.6554 20.2353C17.0711 20.6662 16.6204 21.18 16.3327 21.7434C16.0451 22.3067 15.9269 22.907 15.9858 23.5051V28.4098M15.9858 24.6077C7.10487 26.5087 7.10487 21.4393 3.55249 20.8056L15.9858 24.6077Z" stroke="white" stroke-width="2" stroke-linecap="round" stroke-linejoin="round"/>
</g>
<defs>
<clipPath id="clip0_30_258">
<rect width="42.6286" height="30.4167" fill="white" transform="translate(0 0.527832)"/>
</clipPath>
</defs>
</svg>
