<svg width="43" height="31" viewBox="0 0 43 31" fill="none" xmlns="http://www.w3.org/2000/svg">
<path d="M28.4191 10.4307C31.2456 10.4307 33.9562 11.2318 35.9548 12.6579C37.9534 14.0839 39.0762 16.0181 39.0762 18.0348V26.9064H31.9715V18.0348C31.9715 17.3626 31.5972 16.7179 30.931 16.2425C30.2648 15.7672 29.3613 15.5001 28.4191 15.5001C27.477 15.5001 26.5734 15.7672 25.9072 16.2425C25.241 16.7179 24.8667 17.3626 24.8667 18.0348V26.9064H17.762V18.0348C17.762 16.0181 18.8848 14.0839 20.8834 12.6579C22.882 11.2318 25.5927 10.4307 28.4191 10.4307V10.4307Z" stroke="white" stroke-width="2" stroke-linecap="round" stroke-linejoin="round"/>
<path d="M10.6573 11.698H3.55249V26.9063H10.6573V11.698Z" stroke="white" stroke-width="2" stroke-linecap="round" stroke-linejoin="round"/>
<path d="M7.10487 7.89586C9.0668 7.89586 10.6573 6.76103 10.6573 5.36114C10.6573 3.96125 9.0668 2.82642 7.10487 2.82642C5.14294 2.82642 3.55249 3.96125 3.55249 5.36114C3.55249 6.76103 5.14294 7.89586 7.10487 7.89586Z" stroke="white" stroke-width="2" stroke-linecap="round" stroke-linejoin="round"/>
</svg>
