<svg width="43" height="31" viewBox="0 0 43 31" fill="none" xmlns="http://www.w3.org/2000/svg">
<g clip-path="url(#clip0_30_271)">
<path d="M37.3 12.6736C37.3 21.5451 21.3143 29.1493 21.3143 29.1493C21.3143 29.1493 5.32861 21.5451 5.32861 12.6736C5.32861 9.64846 7.01282 6.74723 10.0107 4.60815C13.0086 2.46906 17.0747 1.26733 21.3143 1.26733C25.554 1.26733 29.62 2.46906 32.6179 4.60815C35.6158 6.74723 37.3 9.64846 37.3 12.6736Z" stroke="white" stroke-width="2" stroke-linecap="round" stroke-linejoin="round"/>
<path d="M21.3142 16.4757C24.2571 16.4757 26.6427 14.7735 26.6427 12.6737C26.6427 10.5738 24.2571 8.87158 21.3142 8.87158C18.3713 8.87158 15.9856 10.5738 15.9856 12.6737C15.9856 14.7735 18.3713 16.4757 21.3142 16.4757Z" stroke="white" stroke-width="2" stroke-linecap="round" stroke-linejoin="round"/>
</g>
<defs>
<clipPath id="clip0_30_271">
<rect width="42.6286" height="30.4167" fill="white"/>
</clipPath>
</defs>
</svg>
