<svg width="43" height="31" viewBox="0 0 43 31" fill="none" xmlns="http://www.w3.org/2000/svg">
<path d="M40.8523 3.85759C39.1514 4.71367 37.2681 5.36843 35.2751 5.79666C34.2053 4.91902 32.7837 4.29698 31.2023 4.01465C29.621 3.73233 27.9563 3.80334 26.4333 4.2181C24.9104 4.63285 23.6027 5.37133 22.6872 6.33366C21.7716 7.29599 21.2924 8.43573 21.3142 9.59874V10.8661C18.1928 10.9239 15.0998 10.4299 12.3107 9.42821C9.52163 8.42653 7.12302 6.94823 5.3285 5.12495C5.3285 5.12495 -1.77626 16.5312 14.2095 21.6007C10.5514 23.3724 6.19379 24.2608 1.77612 24.1354C17.7618 30.4722 37.2999 24.1354 37.2999 9.56072C37.2983 9.2077 37.2507 8.85555 37.1578 8.50881C38.9706 7.2332 40.2499 5.62266 40.8523 3.85759V3.85759Z" stroke="white" stroke-width="2" stroke-linecap="round" stroke-linejoin="round"/>
</svg>
